<?xml version="1.0" encoding="utf-8"?>
<!-- Generator: Adobe Illustrator 26.3.1, SVG Export Plug-In . SVG Version: 6.00 Build 0)  -->
<svg version="1.1" id="layer1" xmlns="http://www.w3.org/2000/svg" xmlns:xlink="http://www.w3.org/1999/xlink" x="0px" y="0px"
	 width="1000px" height="1000px" viewBox="0 0 1000 1000" style="enable-background:new 0 0 1000 1000;" xml:space="preserve">
<style type="text/css">
	.st0{fill:#FFFFFF;}
</style>
<g id="graup">
	<path id="shape" class="st0" d="M390.388,612.405c0.835-27.633,8.283-50.585,24.326-70.705
		c10.305-12.925,23.376-22.219,37.014-31.01c2.751-1.773,5.144-4.17,7.486-6.498c2.682-2.665,2.801-5.872-0.077-8.259
		c-5.307-4.402-10.706-8.781-16.5-12.488c-21.449-13.727-36.987-32.381-45.547-56.302c-5.587-15.615-7.436-31.831-5.754-48.728
		c2.2-22.093,10.253-41.57,23.93-58.359c15.96-19.593,36.514-32.758,61.707-37.531c7.413-1.405,14.994-3.066,22.449-2.857
		c13.609,0.381,27.064,2.426,39.982,7.395c17.542,6.747,32.362,17.395,44.287,31.686c12.464,14.937,20.566,32.081,23.935,51.594
		c4.452,25.783,0.35,49.842-11.963,72.712c-9.748,18.108-24.144,31.576-41.313,42.444c-4.7,2.975-9.013,6.626-13.243,10.271
		c-3.03,2.612-3.097,6.066-0.002,8.565c5.61,4.531,11.451,8.8,17.406,12.869c21.198,14.483,36.848,33.231,45.121,57.866
		c4.531,13.492,6.708,27.361,5.765,41.49c-2.09,31.323-15.148,57.487-38.783,78.005c-16.412,14.248-35.864,22.497-57.326,24.971
		c-28.524,3.288-55.03-3.311-78.159-20.471c-22.258-16.514-36.329-38.933-42.342-66.095
		C391.15,625.58,390.991,617.862,390.388,612.405z"/>
</g>
</svg>
